<svg xmlns="http://www.w3.org/2000/svg" width="1200" height="430" viewBox="0 0 1200 430" role="img" aria-labelledby="title desc">
<title id="title">VAGTechNL GitHub profile hero</title>
<desc id="desc">Premium dark VAGTechNL hero with a stylised Volkswagen Polo 6C GTI in front three-quarter perspective, restrained red garage lighting and evidence-first platform positioning.</desc>
<defs>
  <linearGradient id="bg" x1="0" y1="0" x2="1" y2="1"><stop offset="0" stop-color="#06080B"/><stop offset=".58" stop-color="#090B0F"/><stop offset="1" stop-color="#11151B"/></linearGradient>
  <linearGradient id="beam" x1="0" y1="0" x2="0" y2="1"><stop offset="0" stop-color="#E30613" stop-opacity="0"/><stop offset=".22" stop-color="#E30613" stop-opacity=".12"/><stop offset=".52" stop-color="#FF6B73" stop-opacity=".84"/><stop offset=".82" stop-color="#E30613" stop-opacity=".12"/><stop offset="1" stop-color="#E30613" stop-opacity="0"/></linearGradient>
  <linearGradient id="body" x1=".06" y1=".05" x2=".92" y2=".86"><stop offset="0" stop-color="#343B45"/><stop offset=".24" stop-color="#262C34"/><stop offset=".56" stop-color="#15191F"/><stop offset=".82" stop-color="#0C0F13"/><stop offset="1" stop-color="#07080B"/></linearGradient>
  <linearGradient id="bonnet" x1="0" y1="0" x2="1" y2="1"><stop offset="0" stop-color="#3A414B"/><stop offset=".45" stop-color="#1D2229"/><stop offset="1" stop-color="#0E1116"/></linearGradient>
  <linearGradient id="glass" x1="0" y1="0" x2="1" y2="1"><stop offset="0" stop-color="#303A44"/><stop offset=".48" stop-color="#171D24"/><stop offset="1" stop-color="#090C10"/></linearGradient>
  <radialGradient id="wheel" cx="50%" cy="45%" r="55%"><stop offset="0" stop-color="#343B44"/><stop offset=".36" stop-color="#1C2127"/><stop offset=".4" stop-color="#090B0E"/><stop offset="1" stop-color="#050607"/></radialGradient>
  <linearGradient id="floor" x1="0" y1="0" x2="0" y2="1"><stop offset="0" stop-color="#151A21" stop-opacity=".72"/><stop offset="1" stop-color="#07080B" stop-opacity="0"/></linearGradient>
  <clipPath id="carClip"><path d="M651 312C674 278 710 249 755 232L822 206C858 193 913 194 949 206L1007 228L1053 266L1125 287C1145 293 1155 309 1154 331L1153 347H652Z"/></clipPath>
  <style>.sans{font-family:Inter,ui-sans-serif,system-ui,-apple-system,BlinkMacSystemFont,'Segoe UI',sans-serif}.mono{font-family:ui-monospace,SFMono-Regular,Menlo,Consolas,monospace}@media(prefers-reduced-motion:reduce){.motion{display:none}}</style>
</defs>
<rect width="1200" height="430" rx="22" fill="url(#bg)"/>
<rect x="1" y="1" width="1198" height="428" rx="21" fill="none" stroke="#1C2026" stroke-width="2"/>
<rect x="904" y="12" width="3" height="365" rx="1.5" fill="url(#beam)" opacity=".9"/>
<rect x="937" y="0" width="18" height="392" fill="url(#beam)" opacity=".12"/>
<rect x="1096" y="48" width="2" height="275" fill="url(#beam)" opacity=".42"/>
<path d="M623 360H1171" stroke="#1C2026"/>
<path d="M675 360L620 423H1130L1080 360Z" fill="url(#floor)" opacity=".55"/>

<g class="sans">
  <g transform="translate(28 22)">
    <rect width="1144" height="54" rx="12" fill="#0D0F13" stroke="#1C2026"/>
    <rect x="14" y="13" width="28" height="28" rx="7" fill="#11151B" stroke="#E30613" stroke-opacity=".78"/>
    <path d="M20 33L26 19H30L36 33" fill="none" stroke="#E30613" stroke-width="2" stroke-linecap="round" stroke-linejoin="round"/>
    <text x="54" y="35" fill="#FFFFFF" font-size="19" font-weight="820">VAGTechNL</text>
    <text x="186" y="34" class="mono" fill="#6F7682" font-size="10" letter-spacing="1.45">TECHNIEK · KENNIS · COMMUNITY</text>
    <g transform="translate(808 0)" font-size="10.5" font-weight="760" letter-spacing=".65">
      <text x="0" y="33" fill="#FFFFFF">FORUM</text><text x="74" y="33" fill="#A7ADB7">KENNISBANK</text><text x="176" y="33" fill="#A7ADB7">CODEGARAGE</text><text x="285" y="33" fill="#A7ADB7">TOOLS</text><path d="M0 52H38" stroke="#E30613" stroke-width="2"/>
    </g>
  </g>

  <g transform="translate(52 120)">
    <path d="M0 0H26" stroke="#E30613" stroke-width="2.5"/>
    <text x="38" y="4" class="mono" fill="#A7ADB7" font-size="11" font-weight="720" letter-spacing="1.85">VAGTECHNL / TECHNICAL PLATFORM</text>
    <text x="0" y="64" fill="#FFFFFF" font-size="50" font-weight="840" letter-spacing="-1.9">Engineering first.</text>
    <text x="0" y="119" fill="#FFFFFF" font-size="50" font-weight="840" letter-spacing="-1.9">Evidence over assumptions.</text>
    <text x="0" y="160" fill="#A7ADB7" font-size="16.5">Forum-first community, durable knowledge and technical tooling.</text>
    <text x="0" y="187" fill="#6F7682" font-size="13">Volkswagen Group · diagnostics · coding · retrofits · software</text>
    <g transform="translate(0 225)">
      <rect width="102" height="28" rx="7" fill="#11151B" stroke="#252A32"/><text x="51" y="18" class="mono" text-anchor="middle" fill="#E6E8EB" font-size="9.5" font-weight="700">FORUM FIRST</text>
      <g transform="translate(114)"><rect width="122" height="28" rx="7" fill="#11151B" stroke="#252A32"/><text x="61" y="18" class="mono" text-anchor="middle" fill="#E6E8EB" font-size="9.5" font-weight="700">EVIDENCE DRIVEN</text></g>
      <g transform="translate(248)"><rect width="140" height="28" rx="7" fill="#11151B" stroke="#252A32"/><text x="70" y="18" class="mono" text-anchor="middle" fill="#E6E8EB" font-size="9.5" font-weight="700">UNKNOWN STAYS UNKNOWN</text></g>
    </g>
  </g>

  <g>
    <ellipse cx="908" cy="353" rx="250" ry="20" fill="#050608" opacity=".94"/>
    <path d="M651 312C674 278 710 249 755 232L822 206C858 193 913 194 949 206L1007 228L1053 266L1125 287C1145 293 1155 309 1154 331L1153 347H652Z" fill="url(#body)" stroke="#3A414B" stroke-width="1.2"/>
    <path d="M782 224C823 204 869 201 913 205C942 207 970 215 996 228L1030 258L734 258L782 224Z" fill="url(#glass)" stroke="#343C46"/>
    <path d="M791 225C819 211 848 206 875 206L866 258H749Z" fill="#0A0E12" opacity=".96"/>
    <path d="M884 206C927 207 960 214 991 229L1025 258H876Z" fill="#11171D" opacity=".94"/>
    <path d="M748 264L1032 264L1061 279L722 279Z" fill="url(#bonnet)" opacity=".9"/>
    <path d="M715 290C778 272 850 269 921 273C993 276 1059 288 1127 307" fill="none" stroke="#454D58" stroke-width="1.3" opacity=".72"/>
    <path d="M681 316C758 296 848 292 933 296C1004 299 1073 308 1139 324" fill="none" stroke="#171B21" stroke-width="1.5"/>
    <path d="M675 327H1144" stroke="#090C10" stroke-width="12" opacity=".7"/>

    <path d="M678 300L726 284L765 287L730 305Z" fill="#C7D0D9" opacity=".16" stroke="#69727D" stroke-width=".8"/>
    <path d="M1056 281L1110 296L1132 309L1082 301Z" fill="#C7D0D9" opacity=".13" stroke="#69727D" stroke-width=".8"/>
    <path d="M688 298L727 286" stroke="#FFFFFF" stroke-opacity=".55" stroke-width="1.3"/>
    <path d="M1081 289L1120 301" stroke="#FFFFFF" stroke-opacity=".46" stroke-width="1.2"/>

    <path d="M726 307H1050" stroke="#11151A" stroke-width="7"/>
    <path d="M753 307H994" stroke="#E30613" stroke-width="2.4"/>
    <rect x="972" y="298" width="33" height="14" rx="3" fill="#12161B" stroke="#E30613" stroke-opacity=".55"/>
    <text x="988.5" y="308.5" class="mono" text-anchor="middle" fill="#FF6B73" font-size="8.5" font-weight="800">GTI</text>

    <path d="M838 279V336M1008 278L1021 337" stroke="#080A0D" stroke-width="1.2" opacity=".9"/>
    <path d="M820 286L839 282M990 282L1009 286" stroke="#3C434D" stroke-width="1"/>
    <circle cx="778" cy="340" r="35" fill="url(#wheel)" stroke="#2F353E" stroke-width="4"/><circle cx="778" cy="340" r="15" fill="#11151B" stroke="#4A525D" stroke-width="2.5"/><path d="M778 326V354M764 340H792M768 330L788 350M788 330L768 350" stroke="#737D88" stroke-opacity=".5" stroke-width="1"/>
    <circle cx="1060" cy="340" r="35" fill="url(#wheel)" stroke="#2F353E" stroke-width="4"/><circle cx="1060" cy="340" r="15" fill="#11151B" stroke="#4A525D" stroke-width="2.5"/><path d="M1060 326V354M1046 340H1074M1050 330L1070 350M1070 330L1050 350" stroke="#737D88" stroke-opacity=".5" stroke-width="1"/>
    <path d="M658 334C684 334 712 335 741 338M814 341H1023M1097 338C1117 336 1135 336 1152 337" fill="none" stroke="#252A32"/>
    <path d="M1018 267C1014 260 1008 255 1001 250" stroke="#5A626E" stroke-width="1.2" fill="none"/>
    <path d="M818 213C812 211 803 211 796 214" stroke="#5A626E" stroke-width="1.2" fill="none"/>

    <g class="motion" clip-path="url(#carClip)">
      <rect x="658" y="196" width="1.6" height="152" fill="#FF6B73" opacity="0"><animate attributeName="x" values="658;1145" dur="8.8s" repeatCount="indefinite"/><animate attributeName="opacity" values="0;.36;.36;0" keyTimes="0;.08;.9;1" dur="8.8s" repeatCount="indefinite"/></rect>
      <rect x="658" y="196" width="34" height="152" fill="#E30613" opacity="0"><animate attributeName="x" values="624;1111" dur="8.8s" repeatCount="indefinite"/><animate attributeName="opacity" values="0;.026;.026;0" keyTimes="0;.08;.9;1" dur="8.8s" repeatCount="indefinite"/></rect>
    </g>
  </g>

  <g transform="translate(936 94)">
    <rect width="214" height="92" rx="10" fill="#090B0F" fill-opacity=".94" stroke="#1C2026"/>
    <text x="14" y="20" class="mono" fill="#6F7682" font-size="9.2" letter-spacing="1.1">HERO VEHICLE</text>
    <text x="14" y="44" fill="#FFFFFF" font-size="13.5" font-weight="800">Polo 6C GTI</text>
    <text x="14" y="63" fill="#A7ADB7" font-size="10.5">visual signature · not technical evidence</text>
    <path d="M14 72H200" stroke="#1C2026"/>
    <text x="14" y="85" class="mono" fill="#E30613" font-size="8.5">VAGTECHNL / 2.5D</text>
  </g>
</g>

<text x="52" y="404" class="mono" fill="#4F5661" font-size="9.5" letter-spacing="1">FOR DRIVERS | BY ENTHUSIASTS</text>
<text x="1148" y="404" class="mono" fill="#4F5661" font-size="9.5" text-anchor="end" letter-spacing="1">KNOWLEDGE DRIVES FURTHER</text>
</svg>