<svg xmlns="http://www.w3.org/2000/svg" width="1200" height="420" viewBox="0 0 1200 420" role="img" aria-labelledby="title desc">
  <title id="title">VAGTechNL GitHub profile header</title>
  <desc id="desc">Dark technical VAGTechNL banner with red accent, module nodes and diagnostics theme.</desc>
  <defs>
    <linearGradient id="bg" x1="0" y1="0" x2="1" y2="1">
      <stop offset="0" stop-color="#07080B"/>
      <stop offset="1" stop-color="#0D0F13"/>
    </linearGradient>
    <radialGradient id="redGlow" cx="82%" cy="34%" r="54%">
      <stop offset="0" stop-color="#E10600" stop-opacity="0.18"/>
      <stop offset="0.42" stop-color="#E10600" stop-opacity="0.06"/>
      <stop offset="1" stop-color="#E10600" stop-opacity="0"/>
    </radialGradient>
    <pattern id="grid" width="32" height="32" patternUnits="userSpaceOnUse">
      <path d="M32 0H0V32" fill="none" stroke="#A7ADB7" stroke-opacity="0.055" stroke-width="1"/>
    </pattern>
  </defs>

  <rect width="1200" height="420" rx="28" fill="url(#bg)"/>
  <rect width="1200" height="420" rx="28" fill="url(#grid)"/>
  <rect width="1200" height="420" rx="28" fill="url(#redGlow)"/>
  <rect x="1" y="1" width="1198" height="418" rx="27" fill="none" stroke="#1C2026" stroke-width="2"/>

  <g font-family="Inter, ui-sans-serif, system-ui, -apple-system, BlinkMacSystemFont, 'Segoe UI', sans-serif">
    <g transform="translate(64 58)">
      <rect x="0" y="0" width="144" height="30" rx="15" fill="#14171C" stroke="#1C2026"/>
      <circle cx="18" cy="15" r="4" fill="#E10600"/>
      <text x="31" y="20" fill="#A7ADB7" font-size="12" font-weight="700" letter-spacing="1.8">VAGTECHNL</text>

      <text x="0" y="112" fill="#FFFFFF" font-size="64" font-weight="800" letter-spacing="-2">VAGTechNL</text>
      <text x="0" y="151" fill="#A7ADB7" font-size="21" font-weight="500">Diagnostics · Retrofits · Coding · Module Research · Software</text>

      <g transform="translate(0 205)">
        <rect width="472" height="86" rx="18" fill="#14171C" stroke="#1C2026"/>
        <rect x="18" y="18" width="3" height="50" rx="1.5" fill="#E10600"/>
        <text x="38" y="38" fill="#6F7682" font-size="12" font-family="ui-monospace, SFMono-Regular, Menlo, Consolas, monospace">PLATFORM STATUS</text>
        <text x="38" y="62" fill="#E6E8EB" font-size="15" font-weight="650">VAG knowledge, tooling &amp; community platform</text>
      </g>
    </g>

    <g transform="translate(692 52)">
      <rect width="444" height="316" rx="24" fill="#0D0F13" stroke="#1C2026"/>
      <rect x="20" y="18" width="404" height="30" rx="9" fill="#14171C" stroke="#1C2026"/>
      <circle cx="39" cy="33" r="4" fill="#E10600"/>
      <circle cx="54" cy="33" r="4" fill="#6F7682" opacity="0.65"/>
      <circle cx="69" cy="33" r="4" fill="#6F7682" opacity="0.35"/>
      <text x="92" y="38" fill="#6F7682" font-size="11" font-family="ui-monospace, SFMono-Regular, Menlo, Consolas, monospace">diagnostics://mqb/network</text>

      <g stroke="#6F7682" stroke-opacity="0.32" stroke-width="1.5" fill="none">
        <path d="M94 128H190"/>
        <path d="M254 128H350"/>
        <path d="M222 159V211"/>
        <path d="M190 242H118"/>
        <path d="M254 242H326"/>
      </g>
      <g stroke="#E10600" stroke-opacity="0.82" stroke-width="2" fill="none">
        <path d="M190 128H254"/>
        <path d="M222 159V211"/>
      </g>

      <g font-family="ui-monospace, SFMono-Regular, Menlo, Consolas, monospace" font-size="12" text-anchor="middle">
        <g transform="translate(58 102)">
          <rect width="78" height="52" rx="12" fill="#14171C" stroke="#252A32"/>
          <text x="39" y="24" fill="#E6E8EB">5F</text>
          <text x="39" y="40" fill="#6F7682" font-size="9">MIB</text>
        </g>
        <g transform="translate(183 102)">
          <rect width="78" height="52" rx="12" fill="#14171C" stroke="#E10600" stroke-opacity="0.7"/>
          <text x="39" y="24" fill="#E6E8EB">GW</text>
          <text x="39" y="40" fill="#FF2A23" font-size="9">CAN</text>
        </g>
        <g transform="translate(308 102)">
          <rect width="78" height="52" rx="12" fill="#14171C" stroke="#252A32"/>
          <text x="39" y="24" fill="#E6E8EB">01</text>
          <text x="39" y="40" fill="#6F7682" font-size="9">ECU</text>
        </g>
        <g transform="translate(183 211)">
          <rect width="78" height="52" rx="12" fill="#14171C" stroke="#E10600" stroke-opacity="0.48"/>
          <text x="39" y="24" fill="#E6E8EB">UDS</text>
          <text x="39" y="40" fill="#FF2A23" font-size="9">ODX</text>
        </g>
        <g transform="translate(79 217)">
          <rect width="78" height="52" rx="12" fill="#14171C" stroke="#252A32"/>
          <text x="39" y="24" fill="#E6E8EB">6C</text>
          <text x="39" y="40" fill="#6F7682" font-size="9">RVC</text>
        </g>
        <g transform="translate(287 217)">
          <rect width="78" height="52" rx="12" fill="#14171C" stroke="#252A32"/>
          <text x="39" y="24" fill="#E6E8EB">10</text>
          <text x="39" y="40" fill="#6F7682" font-size="9">PDC</text>
        </g>
      </g>

      <text x="22" y="300" fill="#6F7682" font-size="10" font-family="ui-monospace, SFMono-Regular, Menlo, Consolas, monospace">CAN · UDS · ODX · MQB · OEM RETROFIT</text>
    </g>
  </g>
</svg>