<svg xmlns="http://www.w3.org/2000/svg" width="1200" height="430" viewBox="0 0 1200 430" role="img" aria-labelledby="title desc">
<title id="title">VAGTechNL GitHub profile hero</title>
<desc id="desc">Dark premium VAGTechNL hero with the approved Polo 6C GTI side-profile visual and a restrained scan animation.</desc>
<defs>
  <linearGradient id="bg" x1="0" y1="0" x2="1" y2="1">
    <stop offset="0" stop-color="#06080B"/>
    <stop offset=".68" stop-color="#090B0F"/>
    <stop offset="1" stop-color="#10141A"/>
  </linearGradient>
  <linearGradient id="scanBand" x1="0" y1="0" x2="1" y2="0">
    <stop offset="0" stop-color="#E30613" stop-opacity="0"/>
    <stop offset=".42" stop-color="#E30613" stop-opacity=".02"/>
    <stop offset=".49" stop-color="#FF6B73" stop-opacity=".10"/>
    <stop offset=".50" stop-color="#FFFFFF" stop-opacity=".28"/>
    <stop offset=".52" stop-color="#FF6B73" stop-opacity=".10"/>
    <stop offset=".64" stop-color="#E30613" stop-opacity=".02"/>
    <stop offset="1" stop-color="#E30613" stop-opacity="0"/>
  </linearGradient>
  <clipPath id="carScan" clipPathUnits="userSpaceOnUse">
    <path d="M594 329
             C600 306 620 292 650 282
             L710 264
             C731 258 750 244 767 226
             L820 186
             C842 172 867 166 902 166
             L969 166
             C1001 166 1026 175 1047 191
             L1090 226
             C1112 244 1128 270 1137 300
             L1151 323
             C1156 331 1157 340 1155 347
             L594 347 Z"/>
    <circle cx="708" cy="347" r="38"/>
    <circle cx="1063" cy="347" r="38"/>
  </clipPath>
  <style>
    .sans{font-family:Inter,ui-sans-serif,system-ui,-apple-system,BlinkMacSystemFont,'Segoe UI',sans-serif}
    .mono{font-family:ui-monospace,SFMono-Regular,Menlo,Consolas,monospace}
    @media(prefers-reduced-motion:reduce){.scan-motion{display:none}}
  </style>
</defs>

<rect width="1200" height="430" rx="22" fill="url(#bg)"/>
<rect x="1" y="1" width="1198" height="428" rx="21" fill="none" stroke="#1C2026" stroke-width="2"/>

<g class="sans">
  <g transform="translate(28 22)">
    <rect width="1144" height="54" rx="12" fill="#0D0F13" stroke="#1C2026"/>
    <rect x="14" y="13" width="28" height="28" rx="7" fill="#11151B" stroke="#E30613" stroke-opacity=".76"/>
    <path d="M20 33L26 19H30L36 33" fill="none" stroke="#E30613" stroke-width="2" stroke-linecap="round" stroke-linejoin="round"/>
    <text x="54" y="35" fill="#FFFFFF" font-size="19" font-weight="820">VAGTechNL</text>
    <text x="186" y="34" class="mono" fill="#6F7682" font-size="10" letter-spacing="1.45">TECHNIEK · KENNIS · COMMUNITY</text>
    <g transform="translate(808)" font-size="10.5" font-weight="760" letter-spacing=".65">
      <text x="0" y="33" fill="#FFFFFF">FORUM</text>
      <text x="74" y="33" fill="#A7ADB7">KENNISBANK</text>
      <text x="176" y="33" fill="#A7ADB7">CODEGARAGE</text>
      <text x="285" y="33" fill="#A7ADB7">TOOLS</text>
      <path d="M0 52H38" stroke="#E30613" stroke-width="2"/>
    </g>
  </g>

  <g transform="translate(52 118)">
    <path d="M0 0H26" stroke="#E30613" stroke-width="2.5"/>
    <text x="38" y="4" class="mono" fill="#A7ADB7" font-size="11" font-weight="720" letter-spacing="1.85">TECHNICAL VAG PLATFORM</text>
    <text x="0" y="63" fill="#FFFFFF" font-size="49" font-weight="840" letter-spacing="-1.8">Engineering first.</text>
    <text x="0" y="117" fill="#FFFFFF" font-size="49" font-weight="840" letter-spacing="-1.8">Evidence over assumptions.</text>
    <text x="0" y="157" fill="#A7ADB7" font-size="16.5">Forum-first community, durable knowledge and technical tooling.</text>
    <text x="0" y="184" fill="#6F7682" font-size="13">Volkswagen Group · diagnostics · coding · retrofits · software</text>

    <g transform="translate(0 222)">
      <rect width="100" height="28" rx="7" fill="#11151B" stroke="#252A32"/><text x="50" y="18" class="mono" text-anchor="middle" fill="#E6E8EB" font-size="9.5">FORUM FIRST</text>
      <g transform="translate(112)"><rect width="122" height="28" rx="7" fill="#11151B" stroke="#252A32"/><text x="61" y="18" class="mono" text-anchor="middle" fill="#E6E8EB" font-size="9.5">EVIDENCE DRIVEN</text></g>
      <g transform="translate(246)"><rect width="140" height="28" rx="7" fill="#11151B" stroke="#252A32"/><text x="70" y="18" class="mono" text-anchor="middle" fill="#E6E8EB" font-size="9.5">UNKNOWN STAYS UNKNOWN</text></g>
    </g>
  </g>

  <!-- approved visual: exact side-profile direction the user selected -->
  <g>
    <image x="566" y="145" width="620" height="237"
      href="https://raw.githubusercontent.com/VAGTechNL/VAGTechNL/main/assets/polo-6c-gti-study.jpg?v=13"
      preserveAspectRatio="xMidYMid meet"/>

    <!-- only the scan moves; no crosshair, no vertical red rails -->
    <g class="scan-motion" clip-path="url(#carScan)">
      <g opacity="0">
        <rect x="538" y="158" width="72" height="220" fill="url(#scanBand)"/>
        <rect x="573" y="158" width="1.2" height="220" fill="#FFFFFF" opacity=".5"/>
        <animateTransform attributeName="transform" type="translate" values="0 0;655 0;655 0" keyTimes="0;.7;1" dur="8.8s" repeatCount="indefinite"/>
        <animate attributeName="opacity" values="0;.88;.88;0;0" keyTimes="0;.06;.66;.73;1" dur="8.8s" repeatCount="indefinite"/>
      </g>
    </g>
    <text x="1158" y="385" class="mono" text-anchor="end" fill="#4F5661" font-size="8.7" letter-spacing="1.15">POLO 6C GTI · VISUAL STUDY</text>
  </g>
</g>

<text x="52" y="404" class="mono" fill="#4F5661" font-size="9.5" letter-spacing="1">FOR DRIVERS | BY ENTHUSIASTS</text>
<text x="1148" y="404" class="mono" fill="#4F5661" font-size="9.5" text-anchor="end" letter-spacing="1">KNOWLEDGE DRIVES FURTHER</text>
</svg>