<svg xmlns="http://www.w3.org/2000/svg" width="640" height="500" viewBox="0 0 640 500" role="img" aria-labelledby="title desc">
<title id="title">VAGTechNL mobile technical overview</title>
<desc id="desc">Mobile technical panel for diagnostics, retrofits, research, protocols and software.</desc>
<defs><linearGradient id="panel" x1="0" y1="0" x2="1" y2="1"><stop offset="0" stop-color="#0D0F13"/><stop offset="1" stop-color="#14171C"/></linearGradient></defs>
<rect width="640" height="500" rx="28" fill="#07080B"/>
<rect x="1" y="1" width="638" height="498" rx="27" fill="none" stroke="#1C2026" stroke-width="2"/>
<g transform="translate(26 24)" font-family="ui-monospace,SFMono-Regular,Menlo,Consolas,monospace">
  <rect width="588" height="452" rx="20" fill="url(#panel)" stroke="#1C2026"/>
  <rect width="588" height="52" rx="20" fill="#14171C"/>
  <path d="M0 52H588" stroke="#1C2026"/>
  <circle cx="24" cy="26" r="5" fill="#E10600"/>
  <circle cx="44" cy="26" r="5" fill="#6F7682" opacity=".6"/>
  <circle cx="64" cy="26" r="5" fill="#6F7682" opacity=".3"/>
  <text x="90" y="33" fill="#6F7682" font-size="14">vagtechnl@github:~ / platform</text>
  <g transform="translate(32 90)">
    <text x="0" y="0" fill="#E10600" font-size="17">$</text>
    <text x="28" y="0" fill="#E6E8EB" font-size="19">focus --active</text>
    <circle cx="6" cy="50" r="5" fill="#E10600"/>
    <text x="28" y="58" fill="#FFFFFF" font-size="22" font-weight="700">DIAGNOSTICS</text>
    <text x="28" y="83" fill="#A7ADB7" font-size="16">fault analysis · vehicle communication</text>
    <circle cx="6" cy="125" r="5" fill="#E10600" opacity=".8"/>
    <text x="28" y="133" fill="#FFFFFF" font-size="22" font-weight="700">RETROFITS</text>
    <text x="28" y="158" fill="#A7ADB7" font-size="16">OEM integration · coding · datasets</text>
    <circle cx="6" cy="200" r="5" fill="#E10600" opacity=".6"/>
    <text x="28" y="208" fill="#FFFFFF" font-size="22" font-weight="700">RESEARCH</text>
    <text x="28" y="233" fill="#A7ADB7" font-size="16">modules · documentation · tooling</text>
  </g>
  <g transform="translate(32 360)">
    <rect width="524" height="64" rx="14" fill="#0D0F13" stroke="#1C2026"/>
    <text x="20" y="24" fill="#6F7682" font-size="12" letter-spacing="1.2">PROTOCOLS</text>
    <text x="20" y="49" fill="#E6E8EB" font-size="17" font-weight="700">CAN · UDS · ODX · MQB</text>
    <text x="280" y="24" fill="#6F7682" font-size="12" letter-spacing="1.2">SOFTWARE</text>
    <text x="280" y="49" fill="#A7ADB7" font-size="15">Next.js · React · TS</text>
  </g>
</g>
</svg>